<svg xmlns="http://www.w3.org/2000/svg" xmlns:xlink="http://www.w3.org/1999/xlink" viewBox="0 0 93.44 26.69"><defs><style>.cls-1{fill:url(#Безымянный_градиент_25);}.cls-2,.cls-3{fill:#fff;}.cls-3{font-size:25px;font-family:Ubuntu-Bold, Ubuntu;font-weight:700;letter-spacing:-0.01em;}</style><linearGradient id="Безымянный_градиент_25" y1="18.86" x2="15.52" y2="18.86" gradientUnits="userSpaceOnUse"><stop offset="0" stop-color="#f5a138"/><stop offset="0.19" stop-color="#ee792f"/><stop offset="0.38" stop-color="#ea5f2a"/><stop offset="0.58" stop-color="#e63f24"/><stop offset="0.78" stop-color="#d32216"/><stop offset="1" stop-color="#881812"/></linearGradient></defs><g id="Layer_2" data-name="Layer 2"><g id="Слой_1" data-name="Слой 1"><path class="cls-1" d="M8.1,26.29H7.43A7.43,7.43,0,0,1,0,18.86H0a7.43,7.43,0,0,1,7.43-7.42H8.1a7.42,7.42,0,0,1,7.42,7.42h0A7.42,7.42,0,0,1,8.1,26.29Z"/><path class="cls-2" d="M22.63,12.55h1.23V25.1H22.63Z"/><path class="cls-2" d="M35.09,12.55v1.07h-4V25.1H29.84V13.62h-4V12.55Z"/><path class="cls-2" d="M49.42,25.1c-.81-1.43-1.68-2.85-2.63-4.25a43,43,0,0,0-3-4V25.1H41V12.55h2.3q.6.6,1.32,1.47c.48.58,1,1.2,1.48,1.85s1,1.34,1.49,2.05,1,1.39,1.4,2V12.55h2.8V25.1Z"/><path class="cls-2" d="M55.43,25.1V12.55h8.48v2.37H58.26v2.47h5v2.32h-5v3h6.07V25.1Z"/><path class="cls-2" d="M75.59,13.89l.48,1.68c.17.62.36,1.26.56,1.93l.6,2c.21.66.41,1.28.6,1.85q.24-.93.48-2c.17-.73.32-1.48.47-2.25s.29-1.54.42-2.31.27-1.51.4-2.22h2.93q-.63,3.15-1.47,6.39T79.27,25.1H76.69c-.43-1.16-.84-2.37-1.23-3.65s-.79-2.55-1.18-3.83c-.39,1.28-.77,2.56-1.16,3.83s-.79,2.49-1.21,3.65H69.32q-1-2.91-1.79-6.16t-1.46-6.39h3.06c.12.71.25,1.45.4,2.22s.3,1.54.45,2.31.32,1.52.49,2.25.33,1.39.5,2c.21-.6.43-1.22.63-1.89s.41-1.33.6-2,.37-1.3.54-1.92.31-1.17.44-1.65Z"/><path class="cls-2" d="M88.49,23a4.44,4.44,0,0,0,1-.1,1.89,1.89,0,0,0,.62-.27.91.91,0,0,0,.33-.41,1.47,1.47,0,0,0,.09-.53,1.2,1.2,0,0,0-.58-1,8.68,8.68,0,0,0-2-.88,12.69,12.69,0,0,1-1.23-.5,4.35,4.35,0,0,1-1.11-.7,3.44,3.44,0,0,1-.8-1,3.26,3.26,0,0,1-.3-1.47,3.64,3.64,0,0,1,.32-1.57,3.34,3.34,0,0,1,.93-1.18,4.2,4.2,0,0,1,1.44-.76,6.7,6.7,0,0,1,1.92-.26,7.92,7.92,0,0,1,2.2.27,7.76,7.76,0,0,1,1.52.6L92,15.36a7.92,7.92,0,0,0-1.17-.48,4.94,4.94,0,0,0-1.54-.21,2.8,2.8,0,0,0-1.46.28.94.94,0,0,0-.45.86,1,1,0,0,0,.17.58,1.6,1.6,0,0,0,.46.43,4.44,4.44,0,0,0,.69.34l.86.32c.65.24,1.22.48,1.7.71a4.55,4.55,0,0,1,1.2.83,3,3,0,0,1,.72,1.1,4.37,4.37,0,0,1,.24,1.54,3.29,3.29,0,0,1-1.24,2.73,6,6,0,0,1-3.71,1,11.08,11.08,0,0,1-1.5-.1A9.46,9.46,0,0,1,85.8,25a6.09,6.09,0,0,1-.89-.31c-.24-.1-.45-.21-.62-.3l.8-2.25a6.49,6.49,0,0,0,1.38.55A6.91,6.91,0,0,0,88.49,23Z"/><text class="cls-3" transform="translate(4.05 21.16)">..</text></g></g></svg>