<svg xmlns="http://www.w3.org/2000/svg" xmlns:xlink="http://www.w3.org/1999/xlink" viewBox="0 0 190.57 78.19"><defs><style>.cls-1{fill:#eb5b1b;}.cls-2{fill:#fff;}.cls-3{fill:url(#Безымянный_градиент_25);}</style><linearGradient id="Безымянный_градиент_25" y1="39.1" x2="79.87" y2="39.1" gradientUnits="userSpaceOnUse"><stop offset="0" stop-color="#f6a238"/><stop offset="0.19" stop-color="#ef792f"/><stop offset="0.38" stop-color="#eb5f2a"/><stop offset="0.58" stop-color="#e73f24"/><stop offset="0.78" stop-color="#d42216"/><stop offset="1" stop-color="#891812"/></linearGradient></defs><g id="Слой_2" data-name="Слой 2"><g id="Слой_1-2" data-name="Слой 1"><path class="cls-1" d="M95.79,51.83v.74H93v7.89h-.85V52.57H89.42v-.74Z"/><path class="cls-1" d="M97.58,60.46V51l.81-.15v3.41A6.15,6.15,0,0,1,99.2,54a4.56,4.56,0,0,1,.82-.08,3.26,3.26,0,0,1,1.25.21,1.94,1.94,0,0,1,.79.61,2.31,2.31,0,0,1,.42.94,5.54,5.54,0,0,1,.12,1.2v3.6h-.81V57.12A6.24,6.24,0,0,0,101.7,56a1.88,1.88,0,0,0-.32-.77,1.12,1.12,0,0,0-.57-.43,2.69,2.69,0,0,0-.91-.13l-.46,0-.45.08a3,3,0,0,0-.38.1l-.22.07v5.54Z"/><path class="cls-1" d="M104.78,57.24a4.14,4.14,0,0,1,.24-1.48,3.19,3.19,0,0,1,.63-1,2.54,2.54,0,0,1,.9-.63,2.67,2.67,0,0,1,1-.2,2.38,2.38,0,0,1,1.88.77,3.42,3.42,0,0,1,.71,2.38,1.21,1.21,0,0,1,0,.19,1.11,1.11,0,0,1,0,.19h-4.52a2.85,2.85,0,0,0,.59,1.82,2.19,2.19,0,0,0,1.74.63,3.69,3.69,0,0,0,1.05-.12c.25-.08.44-.16.56-.21l.15.69a3.18,3.18,0,0,1-.66.24,4.13,4.13,0,0,1-1.12.14,3.88,3.88,0,0,1-1.45-.25,2.7,2.7,0,0,1-1-.7,2.77,2.77,0,0,1-.56-1.06A4.8,4.8,0,0,1,104.78,57.24Zm4.56-.51a2.49,2.49,0,0,0-.47-1.57,1.51,1.51,0,0,0-1.27-.56,1.79,1.79,0,0,0-.78.17,2,2,0,0,0-.59.47,2,2,0,0,0-.4.68,2.65,2.65,0,0,0-.17.81Z"/><path class="cls-1" d="M121.74,60.46q-.24-.43-.6-1c-.24-.39-.51-.81-.81-1.25l-.92-1.37c-.32-.47-.64-.92-1-1.37s-.63-.86-.94-1.25-.57-.72-.81-1v7.27h-.83V51.83h.67c.42.48.88,1,1.36,1.64s1,1.25,1.42,1.9.9,1.27,1.3,1.88.74,1.15,1,1.6v-7h.83v8.63Z"/><path class="cls-1" d="M124.75,57.24a3.92,3.92,0,0,1,.25-1.48,3.19,3.19,0,0,1,.63-1,2.54,2.54,0,0,1,.9-.63,2.64,2.64,0,0,1,1-.2,2.41,2.41,0,0,1,1.88.77,3.42,3.42,0,0,1,.7,2.38v.19c0,.07,0,.13,0,.19h-4.52a2.85,2.85,0,0,0,.59,1.82,2.17,2.17,0,0,0,1.74.63,3.57,3.57,0,0,0,1-.12,4.68,4.68,0,0,0,.56-.21l.15.69a2.83,2.83,0,0,1-.65.24,4.15,4.15,0,0,1-1.13.14,3.87,3.87,0,0,1-1.44-.25,2.54,2.54,0,0,1-1-.7,2.64,2.64,0,0,1-.56-1.06A4.79,4.79,0,0,1,124.75,57.24Zm4.57-.51a2.55,2.55,0,0,0-.47-1.57,1.51,1.51,0,0,0-1.27-.56,1.79,1.79,0,0,0-.78.17,2,2,0,0,0-.6.47,2.18,2.18,0,0,0-.4.68,2.65,2.65,0,0,0-.16.81Z"/><path class="cls-1" d="M133.22,54h2.56v.68h-2.56v3.42a3.58,3.58,0,0,0,.09.89,1.15,1.15,0,0,0,.27.53.76.76,0,0,0,.42.25,2.38,2.38,0,0,0,.55.06,2.33,2.33,0,0,0,.82-.12,3.56,3.56,0,0,0,.49-.21l.19.67a2.6,2.6,0,0,1-.61.25,2.85,2.85,0,0,1-.94.15,2.65,2.65,0,0,1-1-.16,1.42,1.42,0,0,1-.65-.47,1.9,1.9,0,0,1-.34-.79,5.29,5.29,0,0,1-.1-1.12V52.13l.81-.15Z"/><path class="cls-1" d="M137.77,60.46V51l.81-.15v3.41a6.15,6.15,0,0,1,.81-.23,4.56,4.56,0,0,1,.82-.08,3.26,3.26,0,0,1,1.25.21,1.94,1.94,0,0,1,.79.61,2.31,2.31,0,0,1,.42.94,5.54,5.54,0,0,1,.12,1.2v3.6H142V57.12a6.24,6.24,0,0,0-.09-1.15,1.88,1.88,0,0,0-.32-.77,1.12,1.12,0,0,0-.57-.43,2.69,2.69,0,0,0-.91-.13l-.46,0-.45.08a3,3,0,0,0-.38.1l-.22.07v5.54Z"/><path class="cls-1" d="M145,57.24a4.14,4.14,0,0,1,.24-1.48,3.19,3.19,0,0,1,.63-1,2.54,2.54,0,0,1,.9-.63,2.67,2.67,0,0,1,1-.2,2.38,2.38,0,0,1,1.88.77,3.42,3.42,0,0,1,.71,2.38,1.21,1.21,0,0,1,0,.19,1.11,1.11,0,0,1,0,.19h-4.51a2.79,2.79,0,0,0,.58,1.82,2.19,2.19,0,0,0,1.74.63,3.69,3.69,0,0,0,1-.12,5.49,5.49,0,0,0,.56-.21l.15.69a3.18,3.18,0,0,1-.66.24,4.13,4.13,0,0,1-1.12.14,3.88,3.88,0,0,1-1.45-.25,2.7,2.7,0,0,1-1-.7,2.77,2.77,0,0,1-.56-1.06A4.8,4.8,0,0,1,145,57.24Zm4.56-.51a2.49,2.49,0,0,0-.47-1.57,1.51,1.51,0,0,0-1.27-.56,1.79,1.79,0,0,0-.78.17,2,2,0,0,0-.59.47,2,2,0,0,0-.4.68,2.65,2.65,0,0,0-.17.81Z"/><path class="cls-1" d="M154.86,53.9a4.38,4.38,0,0,1,.75.06,2.43,2.43,0,0,1,.5.13l-.17.69a2.19,2.19,0,0,0-.4-.1,4.27,4.27,0,0,0-.8-.06,3.72,3.72,0,0,0-.84.08,2.39,2.39,0,0,0-.42.12v5.64h-.81V54.32a6.71,6.71,0,0,1,.86-.28A5.59,5.59,0,0,1,154.86,53.9Z"/><path class="cls-1" d="M159.45,60.57a2.89,2.89,0,0,1-.71-.1,1.42,1.42,0,0,1-.51-.29,1.15,1.15,0,0,1-.31-.5,2.35,2.35,0,0,1-.11-.76V51l.81-.15v8.09a1.56,1.56,0,0,0,.06.48.63.63,0,0,0,.16.29.71.71,0,0,0,.3.15,2.15,2.15,0,0,0,.43.09Z"/><path class="cls-1" d="M163.45,53.88a2.91,2.91,0,0,1,1.08.18,1.84,1.84,0,0,1,.71.49,2.05,2.05,0,0,1,.4.76,3.51,3.51,0,0,1,.12.94v4.06a2.55,2.55,0,0,1-.36.08l-.54.1-.7.08c-.25,0-.51,0-.77,0a3.91,3.91,0,0,1-.94-.11,2.18,2.18,0,0,1-.75-.36,1.69,1.69,0,0,1-.5-.62,2.14,2.14,0,0,1-.18-.93,1.86,1.86,0,0,1,.2-.89,1.67,1.67,0,0,1,.56-.62,2.68,2.68,0,0,1,.86-.36,5.2,5.2,0,0,1,1.08-.11l.37,0,.37.05.31.06.19.06v-.4a4.62,4.62,0,0,0-.05-.65,1.63,1.63,0,0,0-.22-.58,1.22,1.22,0,0,0-.48-.41,1.81,1.81,0,0,0-.8-.15,4.06,4.06,0,0,0-1.06.1c-.23.06-.4.12-.51.16l-.11-.71a2.9,2.9,0,0,1,.65-.19A6.49,6.49,0,0,1,163.45,53.88Zm.07,6a6.67,6.67,0,0,0,.83,0,4.34,4.34,0,0,0,.61-.08V57.5a2.42,2.42,0,0,0-.44-.13,3.56,3.56,0,0,0-.82-.07,4.4,4.4,0,0,0-.62,0,1.69,1.69,0,0,0-.6.19,1.3,1.3,0,0,0-.45.39,1.12,1.12,0,0,0-.17.66,1.58,1.58,0,0,0,.11.61,1,1,0,0,0,.34.4,1.63,1.63,0,0,0,.52.22A3.66,3.66,0,0,0,163.52,59.88Z"/><path class="cls-1" d="M168.33,54.25c.24-.07.56-.14,1-.22a7,7,0,0,1,1.49-.13,3.16,3.16,0,0,1,1.23.21,1.84,1.84,0,0,1,.78.61,2.31,2.31,0,0,1,.42.94,5.54,5.54,0,0,1,.12,1.2v3.6h-.8V57.12a6.14,6.14,0,0,0-.1-1.15,1.75,1.75,0,0,0-.31-.77,1.16,1.16,0,0,0-.57-.43,2.57,2.57,0,0,0-.89-.13,7.1,7.1,0,0,0-1,.06,3.12,3.12,0,0,0-.54.11v5.65h-.81Z"/><path class="cls-1" d="M181,60.26a8.44,8.44,0,0,1-.92.24,7.79,7.79,0,0,1-1.42.11,3.47,3.47,0,0,1-1.28-.23,2.75,2.75,0,0,1-1-.67,3.11,3.11,0,0,1-.65-1.05,4.17,4.17,0,0,1-.23-1.41,4.45,4.45,0,0,1,.2-1.35,3,3,0,0,1,.56-1.07,2.62,2.62,0,0,1,.92-.69,2.85,2.85,0,0,1,1.23-.25,3.07,3.07,0,0,1,1.11.18,2.71,2.71,0,0,1,.67.34V51l.81-.15Zm-.81-5.06a1.91,1.91,0,0,0-.28-.19,2.36,2.36,0,0,0-.39-.19,3.36,3.36,0,0,0-.48-.14,2.51,2.51,0,0,0-.55-.06,2.15,2.15,0,0,0-1,.21,1.92,1.92,0,0,0-.66.57,2.71,2.71,0,0,0-.36.83,4.76,4.76,0,0,0-.11,1,2.71,2.71,0,0,0,.64,2,2.19,2.19,0,0,0,1.68.68,6.19,6.19,0,0,0,1-.06,3.71,3.71,0,0,0,.55-.12Z"/><path class="cls-1" d="M185,59.89a2.56,2.56,0,0,0,1.15-.23.82.82,0,0,0,.46-.78,1.06,1.06,0,0,0-.09-.45.88.88,0,0,0-.26-.33,2.44,2.44,0,0,0-.49-.29l-.76-.32-.68-.31a2.31,2.31,0,0,1-.57-.36,1.57,1.57,0,0,1-.4-.49,1.51,1.51,0,0,1-.15-.7,1.59,1.59,0,0,1,.59-1.27,2.48,2.48,0,0,1,1.62-.48,4.16,4.16,0,0,1,1.09.11,3.05,3.05,0,0,1,.61.2l-.19.72a4.58,4.58,0,0,0-.5-.2,3.48,3.48,0,0,0-1-.12,2.14,2.14,0,0,0-.52,0,1.39,1.39,0,0,0-.43.18,1.07,1.07,0,0,0-.3.3.84.84,0,0,0-.11.44.93.93,0,0,0,.1.45,1.11,1.11,0,0,0,.29.33,3.92,3.92,0,0,0,.47.27l.65.27.71.3a2.54,2.54,0,0,1,.6.37,1.7,1.7,0,0,1,.43.53,1.58,1.58,0,0,1,.16.76,1.51,1.51,0,0,1-.65,1.32,3.12,3.12,0,0,1-1.79.45,4.65,4.65,0,0,1-1.29-.14,5.86,5.86,0,0,1-.6-.22l.21-.74.16.09.34.12a2.83,2.83,0,0,0,.5.12A4.5,4.5,0,0,0,185,59.89Z"/><path class="cls-2" d="M106.53,47.65c-.86-1.44-1.81-3-2.87-4.63s-2.15-3.31-3.28-5-2.29-3.3-3.46-4.87-2.28-3-3.34-4.25V47.65H88.9V21.48h3.89c1,1.06,2.09,2.31,3.24,3.76s2.33,3,3.5,4.51,2.3,3.13,3.4,4.7,2.07,3,2.92,4.4V21.48h4.72V47.65Z"/><path class="cls-2" d="M116.84,47.65V21.48h16.8v4h-12V32h10.73v4H121.59v7.67h12.95v4Z"/><path class="cls-2" d="M155.72,24.43c.41,1.36.83,2.77,1.29,4.24s.92,2.95,1.41,4.42,1,2.92,1.48,4.34,1,2.77,1.41,4c.38-1.36.74-2.83,1.1-4.43s.7-3.26,1.05-5,.7-3.48,1-5.26.66-3.55,1-5.29h4.91q-1.32,7.1-2.94,13.65t-3.62,12.52h-4.57Q156.32,40,153.57,31c-.93,3-1.88,5.94-2.83,8.68s-1.92,5.4-2.88,8h-4.53q-2-6-3.64-12.52t-2.92-13.65h5.1q.45,2.57,1,5.25c.34,1.79.69,3.54,1.06,5.27s.73,3.39,1.11,5,.76,3.09,1.13,4.45c.48-1.28,1-2.63,1.46-4.05s1-2.87,1.45-4.35.94-2.94,1.38-4.4.85-2.86,1.23-4.22Z"/><path class="cls-2" d="M180.72,44.1a6.31,6.31,0,0,0,3.73-.87,2.89,2.89,0,0,0,1.17-2.46,3.21,3.21,0,0,0-.39-1.62,4.34,4.34,0,0,0-1.13-1.23,10.3,10.3,0,0,0-1.8-1c-.7-.31-1.51-.62-2.41-.92s-1.78-.69-2.63-1.08A9,9,0,0,1,175,33.45a6.67,6.67,0,0,1-1.54-2.08,6.58,6.58,0,0,1-.59-2.9,6.8,6.8,0,0,1,2.46-5.57,10.17,10.17,0,0,1,6.68-2,16.05,16.05,0,0,1,4.36.54,14,14,0,0,1,3,1.19l-1.47,3.86a11.34,11.34,0,0,0-2.81-1.1A13.27,13.27,0,0,0,182,25a5,5,0,0,0-3,.8A2.59,2.59,0,0,0,177.88,28a2.91,2.91,0,0,0,.36,1.49,3.7,3.7,0,0,0,1,1.12,8.43,8.43,0,0,0,1.55.9,20.19,20.19,0,0,0,1.95.8q1.85.68,3.3,1.38a8.86,8.86,0,0,1,2.45,1.66A6.38,6.38,0,0,1,190,37.62a8.44,8.44,0,0,1,.53,3.15,6.57,6.57,0,0,1-2.51,5.5q-2.51,1.93-7.34,1.94a19.3,19.3,0,0,1-3-.21,16.71,16.71,0,0,1-2.38-.51,14.7,14.7,0,0,1-1.79-.62,11.78,11.78,0,0,1-1.21-.58l1.4-3.89a16.13,16.13,0,0,0,2.76,1.13A13.47,13.47,0,0,0,180.72,44.1Z"/><path class="cls-3" d="M58.27,65.43H21a8.54,8.54,0,0,1-8.54-8.54V22A8.54,8.54,0,0,1,21,13.47H58.27A8.53,8.53,0,0,1,66.8,22V56.89A8.53,8.53,0,0,1,58.27,65.43ZM9.38,21.08h-6A3.24,3.24,0,0,0,.12,24.32v.58a3.25,3.25,0,0,0,3.25,3.25h6a2.22,2.22,0,0,0,.37,0v-7A2.23,2.23,0,0,0,9.38,21.08ZM9.27,31h-6A3.25,3.25,0,0,0,0,34.27v.57a3.25,3.25,0,0,0,3.25,3.25h6l.36,0V31ZM9.38,41h-6A3.25,3.25,0,0,0,.12,44.21v.58A3.24,3.24,0,0,0,3.37,48h6a2.23,2.23,0,0,0,.37,0V41A2.22,2.22,0,0,0,9.38,41Zm-.11,9.95h-6A3.25,3.25,0,0,0,0,54.15v.58A3.25,3.25,0,0,0,3.25,58h6l.36,0v-7ZM59.06,9.38v-6A3.25,3.25,0,0,0,55.81.12h-.58A3.24,3.24,0,0,0,52,3.37v6a2.23,2.23,0,0,0,0,.37h7C59.05,9.63,59.06,9.51,59.06,9.38Zm-10-.11v-6A3.25,3.25,0,0,0,45.87,0h-.58A3.26,3.26,0,0,0,42,3.25v6c0,.12,0,.24,0,.36h7A2.17,2.17,0,0,0,49.11,9.27Zm-9.94.11v-6A3.24,3.24,0,0,0,35.92.12h-.57A3.24,3.24,0,0,0,32.1,3.37v6c0,.13,0,.25,0,.37h7C39.16,9.63,39.17,9.51,39.17,9.38Zm-9.94-.11v-6A3.26,3.26,0,0,0,26,0H25.4a3.26,3.26,0,0,0-3.25,3.25v6a2.19,2.19,0,0,0,0,.36h7A2.19,2.19,0,0,0,29.23,9.27ZM70.49,58h6a3.24,3.24,0,0,0,3.25-3.25v-.58a3.24,3.24,0,0,0-3.25-3.24h-6l-.37,0v7ZM70.61,48h6a3.24,3.24,0,0,0,3.25-3.24v-.58A3.25,3.25,0,0,0,76.62,41h-6a2.22,2.22,0,0,0-.37,0v7A2.23,2.23,0,0,0,70.61,48Zm-.12-9.94h6a3.24,3.24,0,0,0,3.25-3.25v-.57A3.24,3.24,0,0,0,76.5,31h-6l-.37,0v7Zm.12-9.94h6a3.25,3.25,0,0,0,3.25-3.25v-.58a3.24,3.24,0,0,0-3.25-3.24h-6a2.23,2.23,0,0,0-.37,0v7A2.22,2.22,0,0,0,70.61,28.15ZM22.15,68.81v6a3.25,3.25,0,0,0,3.25,3.24H26a3.25,3.25,0,0,0,3.25-3.24v-6a2.22,2.22,0,0,0,0-.37h-7A2.22,2.22,0,0,0,22.15,68.81Zm10,.12v6a3.24,3.24,0,0,0,3.25,3.24h.57A3.24,3.24,0,0,0,39.17,75v-6c0-.13,0-.25,0-.37h-7C32.11,68.68,32.1,68.8,32.1,68.93ZM42,68.81v6a3.25,3.25,0,0,0,3.25,3.24h.58a3.24,3.24,0,0,0,3.24-3.24v-6a2.23,2.23,0,0,0,0-.37h-7C42.05,68.56,42,68.68,42,68.81Zm10,.12v6a3.24,3.24,0,0,0,3.24,3.24h.58A3.25,3.25,0,0,0,59.06,75v-6c0-.13,0-.25,0-.37H52A2.23,2.23,0,0,0,52,68.93Z"/><path class="cls-2" d="M34.81,24.83a3,3,0,0,1-1,2.32,3.19,3.19,0,0,1-2.24.86,3.26,3.26,0,0,1-2.28-.86,3,3,0,0,1-.94-2.32,3,3,0,0,1,.94-2.36,3.26,3.26,0,0,1,2.28-.86,3.19,3.19,0,0,1,2.24.86A3,3,0,0,1,34.81,24.83ZM34.25,53.9H29V31.41h5.21Z"/><path class="cls-2" d="M40.61,25.48l5.2-.86v6.79h8v4.34h-8v9.16a6.66,6.66,0,0,0,.86,3.87,3.4,3.4,0,0,0,2.93,1.16,9.54,9.54,0,0,0,2.51-.3,15.08,15.08,0,0,0,1.74-.56l.86,4.13a18.74,18.74,0,0,1-2.36.8,13,13,0,0,1-3.44.41,10.84,10.84,0,0,1-4-.65,5.88,5.88,0,0,1-2.56-1.87,7.42,7.42,0,0,1-1.33-3,18.22,18.22,0,0,1-.39-4Z"/></g></g></svg>